HIERARCHY
ROOT hip
{
  OFFSET 0 0 0
  CHANNELS 6 Xposition Yposition Zposition Zrotation Yrotation Xrotation
  JOINT abdomen
  {
    OFFSET 0 20.6881 -0.73152
    CHANNELS 3 Zrotation Xrotation Yrotation
    JOINT chest
    {
      OFFSET 0 11.7043 -0.48768
      CHANNELS 3 Zrotation Xrotation Yrotation
      JOINT neck
      {
        OFFSET 0 22.1894 -2.19456
        CHANNELS 3 Zrotation Xrotation Yrotation
        JOINT head
        {
          OFFSET -0.24384 7.07133 1.2192
          CHANNELS 3 Zrotation Xrotation Yrotation
          JOINT leftEye
          {
            OFFSET 4.14528 8.04674 8.04672
            CHANNELS 3 Zrotation Xrotation Yrotation
            End Site
            {
              OFFSET 1 0 0
            }
          }
          JOINT rightEye
          {
            OFFSET -3.6576 8.04674 8.04672
            CHANNELS 3 Zrotation Xrotation Yrotation
            End Site
            {
              OFFSET 1 0 0
            }
          }
        }
      }
      JOINT rCollar
      {
        OFFSET -2.68224 19.2634 -4.8768
        CHANNELS 3 Zrotation Xrotation Yrotation
        JOINT rShldr
        {
          OFFSET -8.77824 -1.95073 1.46304
          CHANNELS 3 Zrotation Xrotation Yrotation
          JOINT rForeArm
          {
            OFFSET -28.1742 -1.7115 0.48768
            CHANNELS 3 Zrotation Xrotation Yrotation
            JOINT rHand
            {
              OFFSET -22.5879 0.773209 7.07136
              CHANNELS 3 Zrotation Xrotation Yrotation
              JOINT rThumb1
              {
                OFFSET -1.2192 -0.487915 3.41376
                CHANNELS 3 Zrotation Xrotation Yrotation
                JOINT rThumb2
                {
                  OFFSET -3.37035 -0.52449 3.41376
                  CHANNELS 3 Zrotation Xrotation Yrotation
                  End Site
                  {
                    OFFSET -1.78271 -1.18214 1.43049
                  }
                }
              }
              JOINT rIndex1
              {
                OFFSET -7.75947 0.938293 5.60832
                CHANNELS 3 Zrotation Xrotation Yrotation
                JOINT rIndex2
                {
                  OFFSET -2.54057 -0.884171 1.56538
                  CHANNELS 3 Zrotation Xrotation Yrotation
                  End Site
                  {
                    OFFSET -1.62519 -0.234802 1.16502
                  }
                }
              }
              JOINT rMid1
              {
                OFFSET -8.24714 1.18213 3.41376
                CHANNELS 3 Zrotation Xrotation Yrotation
                JOINT rMid2
                {
                  OFFSET -3.10165 -0.590103 1.0647
                  CHANNELS 3 Zrotation Xrotation Yrotation
                  End Site
                  {
                    OFFSET -2.48547 -0.328903 0.83742
                  }
                }
              }
              JOINT rRing1
              {
                OFFSET -8.82822 0.546677 1.51678
                CHANNELS 3 Zrotation Xrotation Yrotation
                JOINT rRing2
                {
                  OFFSET -2.60934 -0.819778 -0.0198488
                  CHANNELS 3 Zrotation Xrotation Yrotation
                  End Site
                  {
                    OFFSET -2.33842 -0.294052 0.168128
                  }
                }
              }
              JOINT rPinky1
              {
                OFFSET -8.27202 -0.0477905 -0.4584
                CHANNELS 3 Zrotation Xrotation Yrotation
                JOINT rPinky2
                {
                  OFFSET -1.82734 -0.647385 -0.700984
                  CHANNELS 3 Zrotation Xrotation Yrotation
                  End Site
                  {
                    OFFSET -1.69225 -0.51767 -0.607171
                  }
                }
              }
            }
          }
        }
      }
      JOINT lCollar
      {
        OFFSET 2.68224 19.2634 -4.8768
        CHANNELS 3 Zrotation Xrotation Yrotation
        JOINT lShldr
        {
          OFFSET 8.77824 -1.95073 1.46304
          CHANNELS 3 Zrotation Xrotation Yrotation
          JOINT lForeArm
          {
            OFFSET 28.1742 -1.7115 0.48768
            CHANNELS 3 Zrotation Xrotation Yrotation
            JOINT lHand
            {
              OFFSET 22.5879 0.773209 7.07136
              CHANNELS 3 Zrotation Xrotation Yrotation
              JOINT lThumb1
              {
                OFFSET 1.2192 -0.487915 3.41376
                CHANNELS 3 Zrotation Xrotation Yrotation
                JOINT lThumb2
                {
                  OFFSET 3.37035 -0.52449 3.41376
                  CHANNELS 3 Zrotation Xrotation Yrotation
                  End Site
                  {
                    OFFSET 1.78271 -1.18214 1.43049
                  }
                }
              }
              JOINT lIndex1
              {
                OFFSET 7.75947 0.938293 5.60832
                CHANNELS 3 Zrotation Xrotation Yrotation
                JOINT lIndex2
                {
                  OFFSET 2.54057 -0.884171 1.56538
                  CHANNELS 3 Zrotation Xrotation Yrotation
                  End Site
                  {
                    OFFSET 1.62519 -0.234802 1.16502
                  }
                }
              }
              JOINT lMid1
              {
                OFFSET 8.24714 1.18213 3.41376
                CHANNELS 3 Zrotation Xrotation Yrotation
                JOINT lMid2
                {
                  OFFSET 3.10165 -0.590103 1.0647
                  CHANNELS 3 Zrotation Xrotation Yrotation
                  End Site
                  {
                    OFFSET 2.48547 -0.328903 0.83742
                  }
                }
              }
              JOINT lRing1
              {
                OFFSET 8.82822 0.546677 1.51678
                CHANNELS 3 Zrotation Xrotation Yrotation
                JOINT lRing2
                {
                  OFFSET 2.60934 -0.819778 -0.0198488
                  CHANNELS 3 Zrotation Xrotation Yrotation
                  End Site
                  {
                    OFFSET 2.33842 -0.294052 0.168128
                  }
                }
              }
              JOINT lPinky1
              {
                OFFSET 8.27202 -0.0477905 -0.4584
                CHANNELS 3 Zrotation Xrotation Yrotation
                JOINT lPinky2
                {
                  OFFSET 1.82734 -0.647385 -0.700984
                  CHANNELS 3 Zrotation Xrotation Yrotation
                  End Site
                  {
                    OFFSET 1.69225 -0.51767 -0.607171
                  }
                }
              }
            }
          }
        }
      }
    }
  }
  JOINT rButtock
  {
    OFFSET -8.77824 4.35084 1.2192
    CHANNELS 3 Zrotation Xrotation Yrotation
    JOINT rThigh
    {
      OFFSET 0 -1.70687 -2.19456
      CHANNELS 3 Zrotation Xrotation Yrotation
      JOINT rShin
      {
        OFFSET 0 -36.8199 0.73152
        CHANNELS 3 Zrotation Xrotation Yrotation
        JOINT rFoot
        {
          OFFSET 0.73152 -45.1104 -5.12064
          CHANNELS 3 Zrotation Xrotation Yrotation
          End Site
          {
            OFFSET -1.1221 -3.69964 12.103
          }
        }
      }
    }
  }
  JOINT lButtock
  {
    OFFSET 8.77824 4.35084 1.2192
    CHANNELS 3 Zrotation Xrotation Yrotation
    JOINT lThigh
    {
      OFFSET 0 -1.70687 -2.19456
      CHANNELS 3 Zrotation Xrotation Yrotation
      JOINT lShin
      {
        OFFSET 0 -36.8199 0.73152
        CHANNELS 3 Zrotation Xrotation Yrotation
        JOINT lFoot
        {
          OFFSET -0.73152 -45.1104 -5.12064
          CHANNELS 3 Zrotation Xrotation Yrotation
          End Site
          {
            OFFSET 1.1221 -3.69964 12.103
          }
        }
      }
    }
  }
}
MOTION
Frames:	4
Frame Time:	0.00833333
-63.0852 85.4272 -86.0697 0.0 0.0 0.0 1.74075 -0.00337328 0.0475548 0.480622 0.000939429 0.0832332 -1.01602e-14 -7.95139e-16 -2.48481e-17 -3.08458e-14 3.18055e-15 -2.48481e-17 -0.0 0.0 0.0 -0.0 0.0 0.0 -5.36862e-15 1.12593e-17 9.93923e-17 -1.05021e-13 1.49089e-16 3.97569e-16 -1.85029e-12 5.55802e-13 3.18055e-15 -2.1109e-11 -5.27028e-13 -8.90555e-14 -4.97992e-11 5.86729e-14 -1.65389e-13 -8.60102e-11 1.01778e-13 -2.80684e-13 -4.97932e-11 5.725e-14 -1.62208e-13 7.73091 5.47488 0.417314 -4.97988e-11 5.83433e-14 -1.62208e-13 2.90554 0.965183 0.102902 -4.97902e-11 5.86415e-14 -1.63799e-13 10.2786 0.731801 0.0259123 -4.98099e-11 6.20208e-14 -1.52667e-13 2.22167 -0.733487 -0.20892 -5.36608e-15 6.60027e-18 -1.49089e-16 -1.09729e-13 2.42269e-16 -1.98785e-15 -1.84532e-12 -5.44869e-13 -3.18055e-15 -2.1114e-11 5.91683e-13 -6.36111e-14 -4.97953e-11 9.94432e-14 -1.62208e-13 -8.59791e-11 1.74931e-13 -2.85455e-13 -4.97995e-11 1.0138e-13 -1.52667e-13 -7.73091 5.47488 -0.417314 -4.97955e-11 9.96905e-14 -1.65389e-13 -2.90554 0.965183 -0.102902 -4.98005e-11 9.92929e-14 -1.64594e-13 -10.2786 0.731801 -0.0259123 -4.97914e-11 1.00187e-13 -1.74931e-13 -2.22167 -0.733487 0.20892 -2.03217e-16 0.0 -3.88251e-19 1.78284 -6.93915 -0.172444 0.00357112 7.00587 0.0919017 -0.484544 -0.0713169 0.053552 2.03217e-16 0.0 3.88251e-19 0.870947 -1.92398 0.00259856 0.0087793 -2.07863 0.072225 0.449276 3.99793 -0.131027
-55.8516 84.326 -92.7481 -93.4584 86.2238 -89.1036 2.8683 2.17359 0.321944 1.13045 -1.69072 0.253047 -2.1275 -1.61108 -1.52729 3.00035 4.90785 -2.31691 -0.0 0.0 0.0 -0.0 0.0 0.0 -3.91191e-15 4.74039e-15 3.26131e-16 20.9609 2.5331 -0.257521 -4.84338 -2.3406 7.40734 0.0760536 6.12688 0.843429 -1.84656e-10 -3.23116e-11 -1.49907e-11 -3.1933e-10 -5.74333e-11 -2.33622e-11 -1.84651e-10 -3.2314e-11 -1.49911e-11 7.73091 5.47488 0.417314 -1.84655e-10 -3.23131e-11 -1.49904e-11 2.90554 0.965183 0.102902 -1.84649e-10 -3.23128e-11 -1.4991e-11 10.2786 0.731801 0.0259123 -1.84666e-10 -3.23097e-11 -1.49817e-11 2.22167 -0.733487 -0.20892 -3.9807e-15 4.73705e-15 9.1239e-17 -21.7056 5.65918 -0.20764 4.11619 -1.84962 -6.45201 -0.0313727 -3.93207 0.547931 -3.83331e-10 7.78487e-11 -9.34004e-11 -6.62269e-10 1.32478e-10 -1.64411e-10 -3.83337e-10 7.78501e-11 -9.33937e-11 -7.73091 5.47488 -0.417314 -3.83331e-10 7.78486e-11 -9.34036e-11 -2.90554 0.965183 -0.102902 -3.83338e-10 7.78482e-11 -9.34027e-11 -10.2786 0.731801 -0.0259123 -3.83326e-10 7.78493e-11 -9.34121e-11 -2.22167 -0.733487 0.20892 -2.03217e-16 0.0 -3.88251e-19 0.209358 -7.39653 -0.824589 0.00895884 8.05624 0.140002 -0.567034 -3.2166 -4.25245 2.03217e-16 0.0 3.88251e-19 3.32107 -5.66784 -1.82244 0.0143296 4.65348 -0.0451052 0.537041 -0.938544 0.445198
-55.5464 84.2126 -92.6896 -91.6686 86.1631 -87.4589 4.05546 4.48068 0.605972 1.83235 -3.47974 0.431497 -4.46575 -3.30823 -3.14521 6.61186 10.0631 -4.82392 -0.0 0.0 0.0 -0.0 0.0 0.0 -2.20002e-15 2.06554e-14 3.72721e-16 43.1362 5.19468 -0.531274 -9.32548 -4.69542 15.2992 -0.0439594 12.5767 1.76457 -3.28853e-10 -6.66992e-11 -2.807e-11 -5.6875e-10 -1.1853e-10 -4.32838e-11 -3.28848e-10 -6.6703e-11 -2.80742e-11 7.73091 5.47488 0.417314 -3.28851e-10 -6.67021e-11 -2.80728e-11 2.90554 0.965183 0.102902 -3.28847e-10 -6.67019e-11 -2.80723e-11 10.2786 0.731801 0.0259123 -3.28862e-10 -6.6699e-11 -2.80648e-11 2.22167 -0.733487 -0.20892 -2.34732e-15 2.06535e-14 1.52194e-16 -44.6059 11.6246 -0.422789 7.99963 -3.71372 -13.2667 0.0179416 -8.07532 1.1341 -7.54771e-10 1.66412e-10 -1.97619e-10 -1.30407e-09 2.83268e-10 -3.47837e-10 -7.54777e-10 1.66413e-10 -1.97615e-10 -7.73091 5.47488 -0.417314 -7.5477e-10 1.66412e-10 -1.97622e-10 -2.90554 0.965183 -0.102902 -7.54778e-10 1.66411e-10 -1.97621e-10 -10.2786 0.731801 -0.0259123 -7.54763e-10 1.66413e-10 -1.9763e-10 -2.22167 -0.733487 0.20892 -2.03217e-16 0.0 -3.88251e-19 -1.45793 -7.89778 -1.51803 0.0127424 9.16856 0.19141 -1.17851 -6.52671 -8.87856 2.03217e-16 0.0 3.88251e-19 5.65903 -9.63171 -3.78815 0.0506443 11.77 -0.172345 0.738555 -6.14922 1.06223
-55.2451 84.1159 -92.5975 -89.9716 86.147 -85.9091 5.0605 6.52686 0.875703 2.4603 -5.07381 0.594673 -6.64065 -4.81948 -4.59634 10.2224 14.6256 -7.15835 -0.0 0.0 0.0 -0.0 0.0 0.0 -9.98492e-16 1.41986e-14 7.79609e-16 62.9515 7.5987 -0.778645 -12.7552 -6.55338 22.3573 -0.337492 18.3643 2.65093 -4.5437e-10 -9.7052e-11 -4.46415e-11 -7.85969e-10 -1.72503e-10 -6.95253e-11 -4.54366e-10 -9.70566e-11 -4.4649e-11 7.73091 5.47488 0.417314 -4.54368e-10 -9.70558e-11 -4.46468e-11 2.90554 0.965183 0.102902 -4.54366e-10 -9.70557e-11 -4.46454e-11 10.2786 0.731801 0.0259123 -4.54379e-10 -9.7053e-11 -4.46396e-11 2.22167 -0.733487 -0.20892 -1.20995e-15 1.4198e-14 5.71894e-16 -64.9889 16.9766 -0.648128 11.1209 -5.26799 -19.4313 0.135607 -11.7918 1.67529 -1.0504e-09 2.33347e-10 -2.79877e-10 -1.81485e-09 3.97084e-10 -4.92662e-10 -1.05041e-09 2.33347e-10 -2.79876e-10 -7.73091 5.47488 -0.417314 -1.0504e-09 2.33346e-10 -2.7988e-10 -2.90554 0.965183 -0.102902 -1.05041e-09 2.33346e-10 -2.79879e-10 -10.2786 0.731801 -0.0259123 -1.05039e-09 2.33348e-10 -2.79886e-10 -2.22167 -0.733487 0.20892 -2.03217e-16 0.0 -3.88251e-19 -2.96917 -8.30782 -2.13322 0.0143576 10.157 0.237146 -2.15291 -9.29304 -13.0181 2.03217e-16 0.0 3.88251e-19 7.49006 -13.1036 -5.59183 0.111051 18.1175 -0.293791 1.01387 -10.8073 1.62567
